<svg width="10" height="10" viewBox="0 0 10 10" fill="none" xmlns="http://www.w3.org/2000/svg">
<path d="M6.17493 5L9.1666 2.03334C9.32573 1.872 9.41425 1.65405 9.41269 1.42744C9.41112 1.20084 9.31961 0.984133 9.15827 0.825003C8.99693 0.665873 8.77898 0.577353 8.55237 0.578916C8.32577 0.580479 8.10906 0.671997 7.94993 0.833337L4.99993 3.825L2.04993 0.89167C1.8938 0.736461 1.68259 0.649343 1.46243 0.649343C1.24228 0.649343 1.03107 0.736461 0.874933 0.89167C0.796826 0.969139 0.73483 1.06131 0.692523 1.16286C0.650216 1.26441 0.628434 1.37333 0.628434 1.48334C0.628434 1.59335 0.650216 1.70227 0.692523 1.80382C0.73483 1.90537 0.796826 1.99753 0.874933 2.075L3.82493 5L0.833266 7.96667C0.674136 8.12801 0.585616 8.34596 0.587179 8.57256C0.588741 8.79917 0.680259 9.01587 0.841599 9.175C1.00294 9.33413 1.22089 9.42265 1.44749 9.42109C1.6741 9.41953 1.8908 9.32801 2.04993 9.16667L4.99993 6.175L7.94993 9.10834C8.10607 9.26355 8.31728 9.35066 8.53743 9.35066C8.75759 9.35066 8.9688 9.26355 9.12493 9.10834C9.20304 9.03087 9.26503 8.9387 9.30734 8.83715C9.34965 8.7356 9.37143 8.62668 9.37143 8.51667C9.37143 8.40666 9.34965 8.29774 9.30734 8.19619C9.26503 8.09464 9.20304 8.00247 9.12493 7.925L6.17493 5Z" fill="#A1A5B7"/>
</svg>
