<svg width="12" height="12" viewBox="0 0 12 12" fill="none" xmlns="http://www.w3.org/2000/svg">
<path d="M11.5825 10.3225L9.71005 8.57249C10.5058 7.51173 10.8737 6.19059 10.7408 4.87121C10.6078 3.55183 9.98377 2.33064 8.9924 1.44995C8.00104 0.56925 6.71482 0.093414 5.38897 0.116854C4.06312 0.140295 2.79453 0.661299 1.83492 1.57649C0.875301 2.49168 0.294793 3.73416 0.208577 5.05742C0.122362 6.38067 0.53674 7.68798 1.36949 8.71995C2.20224 9.75192 3.3925 10.4331 4.7041 10.6284C6.0157 10.8237 7.35279 10.5188 8.45005 9.77416L10.375 11.6C10.5351 11.7462 10.7418 11.831 10.9584 11.8392C11.0781 11.8402 11.1968 11.8157 11.3064 11.7675C11.416 11.7192 11.5141 11.6482 11.5942 11.5592C11.6753 11.4775 11.7394 11.3806 11.7827 11.2741C11.8261 11.1675 11.8478 11.0534 11.8467 10.9384C11.8456 10.8234 11.8217 10.7097 11.7764 10.604C11.731 10.4982 11.6652 10.4026 11.5825 10.3225ZM5.47505 9.10916C4.73716 9.108 4.01617 8.88822 3.40312 8.47755C2.79007 8.06688 2.31246 7.48376 2.03062 6.80182C1.74878 6.11988 1.67534 5.36971 1.81957 4.64606C1.96381 3.92241 2.31926 3.25773 2.84102 2.73596C3.36279 2.2142 4.02747 1.85875 4.75112 1.71452C5.47477 1.57028 6.22493 1.64372 6.90687 1.92556C7.58881 2.20741 8.17194 2.68501 8.58261 3.29806C8.99327 3.91111 9.21306 4.63211 9.21422 5.36999C9.21422 5.86103 9.1175 6.34725 8.92959 6.80091C8.74168 7.25457 8.46625 7.66677 8.11904 8.01398C7.77182 8.3612 7.35962 8.63662 6.90596 8.82453C6.45231 9.01244 5.96608 9.10916 5.47505 9.10916Z" fill="#A1A5B7"/>
</svg>
