<svg width="34" height="42" viewBox="0 0 34 42" fill="none" xmlns="http://www.w3.org/2000/svg">
<path d="M27.485 41.2083H5.94167C4.36584 41.2083 2.85455 40.5823 1.74027 39.4681C0.625996 38.3538 0 36.8425 0 35.2667V5.94167C0 4.36584 0.625996 2.85455 1.74027 1.74027C2.85455 0.625995 4.36584 0 5.94167 0H19.1475C19.668 0.000821735 20.1832 0.104541 20.6634 0.305191C21.1436 0.505842 21.5795 0.799463 21.9458 1.16917L32.2958 11.6533C33.0209 12.3889 33.4271 13.3805 33.4267 14.4133V35.2667C33.4267 36.8425 32.8007 38.3538 31.6864 39.4681C30.5721 40.5823 29.0608 41.2083 27.485 41.2083V41.2083ZM5.94167 2.875C5.12834 2.875 4.34832 3.19809 3.77321 3.77321C3.19809 4.34832 2.875 5.12834 2.875 5.94167V35.2667C2.875 36.08 3.19809 36.86 3.77321 37.4351C4.34832 38.0102 5.12834 38.3333 5.94167 38.3333H27.485C28.2983 38.3333 29.0784 38.0102 29.6535 37.4351C30.2286 36.86 30.5517 36.08 30.5517 35.2667V14.4133C30.545 14.1349 30.4358 13.8687 30.245 13.6658L19.895 3.18167C19.7967 3.08391 19.6801 3.0065 19.5518 2.95388C19.4235 2.90125 19.2861 2.87445 19.1475 2.875H5.94167Z" fill="#D8D8E5"/>
<path d="M31.9317 15.3333H25.5683C23.6095 15.3333 21.7306 14.5565 20.3437 13.1732C18.9568 11.7898 18.1751 9.91297 18.17 7.95414V1.43747C18.1688 1.23938 18.2091 1.04323 18.2884 0.861665C18.3676 0.680101 18.484 0.517148 18.63 0.383302C18.7918 0.24524 18.9828 0.145864 19.1888 0.0927252C19.3947 0.0395867 19.61 0.034084 19.8183 0.0766353C20.6054 0.21609 21.3291 0.598068 21.8883 1.16914L32.2383 11.6533C32.7562 12.1825 33.1149 12.8467 33.2733 13.57C33.3195 13.7784 33.318 13.9946 33.269 14.2025C33.2199 14.4103 33.1246 14.6043 32.9901 14.7702C32.8556 14.936 32.6854 15.0693 32.4922 15.1602C32.2989 15.2511 32.0877 15.2971 31.8742 15.295L31.9317 15.3333ZM21.045 4.3508V7.95414C21.0501 9.15047 21.5289 10.2961 22.3766 11.1402C23.2244 11.9844 24.372 12.4583 25.5683 12.4583H29.0567L21.045 4.3508Z" fill="#D8D8E5"/>
</svg>
